<?xml version="1.0"?>
<svg xmlns="http://www.w3.org/2000/svg" version="1.1" width="894pt" height="661pt" viewBox="-33.45002746582031 -229.86874628067017 894 661.0000000000001" preserveAspectRatio="none" xmlns:xlink="http://www.w3.org/1999/xlink">
  <defs>
  </defs>
  <path d="M178.79998779296875,101.0999984741211 L188.09999084472656,101.0999984741211 " stroke="#6E6E6E" fill="none" stroke-width="1" stroke-opacity="1" />
  <path d="M193.79998779296875,101.09999084472656 L188.0999755859375,103.31999206542969 L188.0999755859375,98.87999725341797 L193.79998779296875,101.09999084472656 " stroke="none" fill="#6E6E6E" fill-rule="evenodd" stroke-width="0" fill-opacity="1" />
  <path d="M193.79998779296875,101.09999084472656 L188.0999755859375,103.31999206542969 L188.0999755859375,98.87999725341797 L193.79998779296875,101.09999084472656 " stroke="#6E6E6E" fill="none" stroke-width="1" stroke-opacity="1" />
  <path d="M89.39999389648438,101.0999984741211 L98.69998931884766,101.0999984741211 " stroke="#6E6E6E" fill="none" stroke-width="1" stroke-opacity="1" />
  <path d="M104.39999389648438,101.09999084472656 L98.69998931884766,103.31999206542969 L98.69998931884766,98.87999725341797 L104.39999389648438,101.09999084472656 " stroke="none" fill="#6E6E6E" fill-rule="evenodd" stroke-width="0" fill-opacity="1" />
  <path d="M104.39999389648438,101.09999084472656 L98.69998931884766,103.31999206542969 L98.69998931884766,98.87999725341797 L104.39999389648438,101.09999084472656 " stroke="#6E6E6E" fill="none" stroke-width="1" stroke-opacity="1" />
  <path d="M357.5999755859375,101.0999984741211 L366.89996337890625,101.0999984741211 " stroke="#6E6E6E" fill="none" stroke-width="1" stroke-opacity="1" />
  <path d="M372.5999755859375,101.09999084472656 L366.89996337890625,103.31999206542969 L366.89996337890625,98.87999725341797 L372.5999755859375,101.09999084472656 " stroke="none" fill="#6E6E6E" fill-rule="evenodd" stroke-width="0" fill-opacity="1" />
  <path d="M372.5999755859375,101.09999084472656 L366.89996337890625,103.31999206542969 L366.89996337890625,98.87999725341797 L372.5999755859375,101.09999084472656 " stroke="#6E6E6E" fill="none" stroke-width="1" stroke-opacity="1" />
  <path d="M255.99542236328125,146.05352783203125 L283.16217041015625,127.09147644042969 " stroke="#6E6E6E" fill="none" stroke-width="1" stroke-opacity="1" />
  <path d="M287.8362121582031,123.82906341552734 L284.43280029296875,128.91189575195312 L281.89154052734375,125.27106475830078 L287.8362121582031,123.82906341552734 " stroke="none" fill="#6E6E6E" fill-rule="evenodd" stroke-width="0" fill-opacity="1" />
  <path d="M287.8362121582031,123.82906341552734 L284.43280029296875,128.91189575195312 L281.89154052734375,125.27106475830078 L287.8362121582031,123.82906341552734 " stroke="#6E6E6E" fill="none" stroke-width="1" stroke-opacity="1" />
  <path d="M268.1999816894531,101.0999984741211 L277.5,101.0999984741211 " stroke="#6E6E6E" fill="none" stroke-width="1" stroke-opacity="1" />
  <path d="M283.20001220703125,101.09999084472656 L277.5,103.31999206542969 L277.5,98.87999725341797 L283.20001220703125,101.09999084472656 " stroke="none" fill="#6E6E6E" fill-rule="evenodd" stroke-width="0" fill-opacity="1" />
  <path d="M283.20001220703125,101.09999084472656 L277.5,103.31999206542969 L277.5,98.87999725341797 L283.20001220703125,101.09999084472656 " stroke="#6E6E6E" fill="none" stroke-width="1" stroke-opacity="1" />
  <path d="M531.7606201171875,78.37311553955078 L558.9304809570312,59.40890121459961 " stroke="#6E6E6E" fill="none" stroke-width="1" stroke-opacity="1" />
  <path d="M563.6044921875,56.146480560302734 L560.2010498046875,61.229312896728516 L557.6597900390625,57.58848190307617 L563.6044921875,56.146480560302734 " stroke="none" fill="#6E6E6E" fill-rule="evenodd" stroke-width="0" fill-opacity="1" />
  <path d="M563.6044921875,56.146480560302734 L560.2010498046875,61.229312896728516 L557.6597900390625,57.58848190307617 L563.6044921875,56.146480560302734 " stroke="#6E6E6E" fill="none" stroke-width="1" stroke-opacity="1" />
  <path d="M536.3999633789062,101.0999984741211 L545.699951171875,101.0999984741211 " stroke="#6E6E6E" fill="none" stroke-width="1" stroke-opacity="1" />
  <path d="M551.3999633789062,101.09999084472656 L545.699951171875,103.31999206542969 L545.699951171875,98.87999725341797 L551.3999633789062,101.09999084472656 " stroke="none" fill="#6E6E6E" fill-rule="evenodd" stroke-width="0" fill-opacity="1" />
  <path d="M551.3999633789062,101.09999084472656 L545.699951171875,103.31999206542969 L545.699951171875,98.87999725341797 L551.3999633789062,101.09999084472656 " stroke="#6E6E6E" fill="none" stroke-width="1" stroke-opacity="1" />
  <path d="M531.7637329101562,123.8290786743164 L558.9304809570312,142.7910919189453 " stroke="#6E6E6E" fill="none" stroke-width="1" stroke-opacity="1" />
  <path d="M563.6044921875,146.0535125732422 L557.6598510742188,144.61151123046875 L560.2011108398438,140.97068786621094 L563.6044921875,146.0535125732422 " stroke="none" fill="#6E6E6E" fill-rule="evenodd" stroke-width="0" fill-opacity="1" />
  <path d="M563.6044921875,146.0535125732422 L557.6598510742188,144.61151123046875 L560.2011108398438,140.97068786621094 L563.6044921875,146.0535125732422 " stroke="#6E6E6E" fill="none" stroke-width="1" stroke-opacity="1" />
  <path d="M434.79541015625,146.05352783203125 L461.9621887207031,127.09147644042969 " stroke="#6E6E6E" fill="none" stroke-width="1" stroke-opacity="1" />
  <path d="M466.63623046875,123.82906341552734 L463.2328186035156,128.91189575195312 L460.6915588378906,125.27106475830078 L466.63623046875,123.82906341552734 " stroke="none" fill="#6E6E6E" fill-rule="evenodd" stroke-width="0" fill-opacity="1" />
  <path d="M466.63623046875,123.82906341552734 L463.2328186035156,128.91189575195312 L460.6915588378906,125.27106475830078 L466.63623046875,123.82906341552734 " stroke="#6E6E6E" fill="none" stroke-width="1" stroke-opacity="1" />
  <path d="M447,101.0999984741211 L456.3000183105469,101.0999984741211 " stroke="#6E6E6E" fill="none" stroke-width="1" stroke-opacity="1" />
  <path d="M462,101.09999084472656 L456.29998779296875,103.31999206542969 L456.29998779296875,98.87999725341797 L462,101.09999084472656 " stroke="none" fill="#6E6E6E" fill-rule="evenodd" stroke-width="0" fill-opacity="1" />
  <path d="M462,101.09999084472656 L456.29998779296875,103.31999206542969 L456.29998779296875,98.87999725341797 L462,101.09999084472656 " stroke="#6E6E6E" fill="none" stroke-width="1" stroke-opacity="1" />
  <path d="M715.199951171875,38.69999694824219 L724.5,38.69999694824219 " stroke="#6E6E6E" fill="none" stroke-width="1" stroke-opacity="1" />
  <path d="M730.199951171875,38.69999694824219 L724.4999389648438,40.91999816894531 L724.4999389648438,36.47999954223633 L730.199951171875,38.69999694824219 " stroke="none" fill="#6E6E6E" fill-rule="evenodd" stroke-width="0" fill-opacity="1" />
  <path d="M730.199951171875,38.69999694824219 L724.4999389648438,40.91999816894531 L724.4999389648438,36.47999954223633 L730.199951171875,38.69999694824219 " stroke="#6E6E6E" fill="none" stroke-width="1" stroke-opacity="1" />
  <path d="M625.7999267578125,38.69999694824219 L635.0999755859375,38.69999694824219 " stroke="#6E6E6E" fill="none" stroke-width="1" stroke-opacity="1" />
  <path d="M640.7999877929688,38.69999694824219 L635.0999755859375,40.91999816894531 L635.0999755859375,36.47999954223633 L640.7999877929688,38.69999694824219 " stroke="none" fill="#6E6E6E" fill-rule="evenodd" stroke-width="0" fill-opacity="1" />
  <path d="M640.7999877929688,38.69999694824219 L635.0999755859375,40.91999816894531 L635.0999755859375,36.47999954223633 L640.7999877929688,38.69999694824219 " stroke="#6E6E6E" fill="none" stroke-width="1" stroke-opacity="1" />
  <path d="M89.39998626708984,101.09998321533203 C89.39998626708984,114.18913269042969 72.74497985839844,124.79998779296875 52.20001220703125,124.79998779296875 C31.655027389526367,124.79999542236328 15.000014305114746,114.18914794921875 14.99999713897705,101.10000610351562 L14.999994277954102,101.10000610351562 C14.999977111816406,88.01085662841797 31.65497398376465,77.4000015258789 52.1999626159668,77.39999389648438 C72.74494934082031,77.39997863769531 89.39996337890625,88.01082611083984 89.39998626708984,101.09999084472656 C89.39998626708984,101.09999084472656 89.39998626708984,101.09999084472656 89.39998626708984,101.09999084472656 " stroke="none" fill="#70AECC" fill-rule="evenodd" stroke-width="0" fill-opacity="1" />
  <text x="40.30018615722656" y="36.89672088623047" dx="0" dy="0" font-family="Arial" font-size="6pt" fill="#000000" style="text-anchor:start" transform="matrix(0.750000 0.000000 0.000000 0.750000 15 77.39999389648438)">I75</text>
  <path d="M89.39998626708984,101.09998321533203 C89.39998626708984,114.18913269042969 72.74497985839844,124.79998779296875 52.20001220703125,124.79998779296875 C31.655027389526367,124.79999542236328 15.000014305114746,114.18914794921875 14.99999713897705,101.10000610351562 L14.999994277954102,101.10000610351562 C14.999977111816406,88.01085662841797 31.65497398376465,77.4000015258789 52.1999626159668,77.39999389648438 C72.74494934082031,77.39997863769531 89.39996337890625,88.01082611083984 89.39998626708984,101.09999084472656 C89.39998626708984,101.09999084472656 89.39998626708984,101.09999084472656 89.39998626708984,101.09999084472656 " stroke="none" fill="none" stroke-width="0.5" stroke-opacity="0" />
  <path d="M268.199951171875,163.49998474121094 C268.199951171875,176.58914184570312 251.5449676513672,187.1999969482422 231,187.1999969482422 C210.4550018310547,187.1999969482422 193.79998779296875,176.5891571044922 193.7999725341797,163.50001525878906 L193.7999725341797,163.50001525878906 C193.79995727539062,150.41085815429688 210.4549560546875,139.8000030517578 230.99993896484375,139.8000030517578 C251.54493713378906,139.79998779296875 268.199951171875,150.41082763671875 268.199951171875,163.5 C268.199951171875,163.5 268.199951171875,163.5 268.199951171875,163.5 " stroke="none" fill="#70AECC" fill-rule="evenodd" stroke-width="0" fill-opacity="1" />
  <text x="26.96485710144043" y="36.89672088623047" dx="0" dy="0" font-family="Arial" font-size="6pt" fill="#000000" style="text-anchor:start" transform="matrix(0.750000 0.000000 0.000000 0.750000 193.79998779296875 139.8000030517578)">schools</text>
  <path d="M268.199951171875,163.49998474121094 C268.199951171875,176.58914184570312 251.5449676513672,187.1999969482422 231,187.1999969482422 C210.4550018310547,187.1999969482422 193.79998779296875,176.5891571044922 193.7999725341797,163.50001525878906 L193.7999725341797,163.50001525878906 C193.79995727539062,150.41085815429688 210.4549560546875,139.8000030517578 230.99993896484375,139.8000030517578 C251.54493713378906,139.79998779296875 268.199951171875,150.41082763671875 268.199951171875,163.5 C268.199951171875,163.5 268.199951171875,163.5 268.199951171875,163.5 " stroke="none" fill="none" stroke-width="0.5" stroke-opacity="0" />
  <path d="M446.99993896484375,163.49998474121094 C446.99993896484375,176.58914184570312 430.3449401855469,187.1999969482422 409.79998779296875,187.1999969482422 C389.2549743652344,187.1999969482422 372.5999755859375,176.5891571044922 372.5999450683594,163.50001525878906 L372.5999450683594,163.50001525878906 C372.5999450683594,150.41085815429688 389.25494384765625,139.8000030517578 409.7999267578125,139.8000030517578 C430.34490966796875,139.79998779296875 446.99993896484375,150.41082763671875 446.99993896484375,163.5 C446.99993896484375,163.5 446.99993896484375,163.5 446.99993896484375,163.5 " stroke="none" fill="#70AECC" fill-rule="evenodd" stroke-width="0" fill-opacity="1" />
  <text x="14.618855476379395" y="36.89672088623047" dx="0" dy="0" font-family="Arial" font-size="6pt" fill="#000000" style="text-anchor:start" transform="matrix(0.750000 0.000000 0.000000 0.750000 372.5999755859375 139.8000030517578)">blockgroups</text>
  <path d="M446.99993896484375,163.49998474121094 C446.99993896484375,176.58914184570312 430.3449401855469,187.1999969482422 409.79998779296875,187.1999969482422 C389.2549743652344,187.1999969482422 372.5999755859375,176.5891571044922 372.5999450683594,163.50001525878906 L372.5999450683594,163.50001525878906 C372.5999450683594,150.41085815429688 389.25494384765625,139.8000030517578 409.7999267578125,139.8000030517578 C430.34490966796875,139.79998779296875 446.99993896484375,150.41082763671875 446.99993896484375,163.5 C446.99993896484375,163.5 446.99993896484375,163.5 446.99993896484375,163.5 " stroke="none" fill="none" stroke-width="0.5" stroke-opacity="0" />
  <path d="M112.9039306640625,77.39999389648438 L170.29605102539062,77.39999389648438 L170.29603576660156,77.39999389648438 C174.99261474609375,77.39998626708984 178.7999725341797,81.20732116699219 178.7999725341797,85.90392303466797 C178.7999725341797,85.90392303466797 178.7999725341797,85.9039306640625 178.7999725341797,85.9039306640625 L178.79998779296875,85.9039306640625 L178.79998779296875,116.29605865478516 L178.7999725341797,116.29605102539062 C178.7999725341797,120.99264526367188 174.99264526367188,124.79998779296875 170.29605102539062,124.79998779296875 L170.29605102539062,124.79998779296875 L112.9039306640625,124.79998779296875 L112.9039306640625,124.79998779296875 C108.20733642578125,124.79998779296875 104.39999389648438,120.9926528930664 104.39999389648438,116.29605865478516 L104.39999389648438,85.9039306640625 L104.39998626708984,85.9039306640625 C104.39998626708984,81.20733642578125 108.20732116699219,77.39999389648438 112.90391540527344,77.39998626708984 " stroke="none" fill="#F2E279" fill-rule="evenodd" stroke-width="0" fill-opacity="1" />
  <text x="30.40618896484375" y="36.89672088623047" dx="0" dy="0" font-family="Arial" font-size="6pt" fill="#000000" style="text-anchor:start" transform="matrix(0.750000 0.000000 0.000000 0.750000 104.39999389648438 77.39999389648438)">Buffer</text>
  <path d="M112.9039306640625,77.39999389648438 L170.29605102539062,77.39999389648438 L170.29603576660156,77.39999389648438 C174.99261474609375,77.39998626708984 178.7999725341797,81.20732116699219 178.7999725341797,85.90392303466797 C178.7999725341797,85.90392303466797 178.7999725341797,85.9039306640625 178.7999725341797,85.9039306640625 L178.79998779296875,85.9039306640625 L178.79998779296875,116.29605865478516 L178.7999725341797,116.29605102539062 C178.7999725341797,120.99264526367188 174.99264526367188,124.79998779296875 170.29605102539062,124.79998779296875 L170.29605102539062,124.79998779296875 L112.9039306640625,124.79998779296875 L112.9039306640625,124.79998779296875 C108.20733642578125,124.79998779296875 104.39999389648438,120.9926528930664 104.39999389648438,116.29605865478516 L104.39999389648438,85.9039306640625 L104.39998626708984,85.9039306640625 C104.39998626708984,81.20733642578125 108.20732116699219,77.39999389648438 112.90391540527344,77.39998626708984 " stroke="none" fill="none" stroke-width="0.5" stroke-opacity="0" />
  <path d="M268.199951171875,101.09998321533203 C268.199951171875,114.18913269042969 251.5449676513672,124.79998779296875 231,124.79998779296875 C210.4550018310547,124.79999542236328 193.79998779296875,114.18914794921875 193.7999725341797,101.10000610351562 L193.7999725341797,101.10000610351562 C193.79995727539062,88.01085662841797 210.4549560546875,77.4000015258789 230.99993896484375,77.39999389648438 C251.54493713378906,77.39997863769531 268.199951171875,88.01082611083984 268.199951171875,101.09999084472656 C268.199951171875,101.09999084472656 268.199951171875,101.09999084472656 268.199951171875,101.09999084472656 " stroke="none" fill="#83CC7C" fill-rule="evenodd" stroke-width="0" fill-opacity="1" />
  <text x="15.62352180480957" y="36.89672088623047" dx="0" dy="0" font-family="Arial" font-size="6pt" fill="#000000" style="text-anchor:start" transform="matrix(0.750000 0.000000 0.000000 0.750000 193.79998779296875 77.39999389648438)">I75_2mi_mb</text>
  <path d="M268.199951171875,101.09998321533203 C268.199951171875,114.18913269042969 251.5449676513672,124.79998779296875 231,124.79998779296875 C210.4550018310547,124.79999542236328 193.79998779296875,114.18914794921875 193.7999725341797,101.10000610351562 L193.7999725341797,101.10000610351562 C193.79995727539062,88.01085662841797 210.4549560546875,77.4000015258789 230.99993896484375,77.39999389648438 C251.54493713378906,77.39997863769531 268.199951171875,88.01082611083984 268.199951171875,101.09999084472656 C268.199951171875,101.09999084472656 268.199951171875,101.09999084472656 268.199951171875,101.09999084472656 " stroke="none" fill="none" stroke-width="0.5" stroke-opacity="0" />
  <path d="M291.7039489746094,77.39999389648438 L349.0960693359375,77.39999389648438 L349.0960388183594,77.39999389648438 C353.7926330566406,77.39998626708984 357.5999755859375,81.20732116699219 357.5999755859375,85.90392303466797 C357.5999755859375,85.90392303466797 357.5999755859375,85.9039306640625 357.5999755859375,85.9039306640625 L357.6000061035156,85.9039306640625 L357.6000061035156,116.29605865478516 L357.5999755859375,116.29605102539062 C357.5999755859375,120.99264526367188 353.79266357421875,124.79998779296875 349.0960693359375,124.79998779296875 L349.0960693359375,124.79998779296875 L291.7039489746094,124.79998779296875 L291.7039489746094,124.79998779296875 C287.0073547363281,124.79998779296875 283.20001220703125,120.9926528930664 283.20001220703125,116.29605865478516 L283.20001220703125,85.9039306640625 L283.1999816894531,85.9039306640625 C283.1999816894531,81.20733642578125 287.00732421875,77.39999389648438 291.70391845703125,77.39998626708984 " stroke="none" fill="#F2E279" fill-rule="evenodd" stroke-width="0" fill-opacity="1" />
  <text x="35.639522552490234" y="36.89672088623047" dx="0" dy="0" font-family="Arial" font-size="6pt" fill="#000000" style="text-anchor:start" transform="matrix(0.750000 0.000000 0.000000 0.750000 283.20001220703125 77.39999389648438)">Clip</text>
  <path d="M291.7039489746094,77.39999389648438 L349.0960693359375,77.39999389648438 L349.0960388183594,77.39999389648438 C353.7926330566406,77.39998626708984 357.5999755859375,81.20732116699219 357.5999755859375,85.90392303466797 C357.5999755859375,85.90392303466797 357.5999755859375,85.9039306640625 357.5999755859375,85.9039306640625 L357.6000061035156,85.9039306640625 L357.6000061035156,116.29605865478516 L357.5999755859375,116.29605102539062 C357.5999755859375,120.99264526367188 353.79266357421875,124.79998779296875 349.0960693359375,124.79998779296875 L349.0960693359375,124.79998779296875 L291.7039489746094,124.79998779296875 L291.7039489746094,124.79998779296875 C287.0073547363281,124.79998779296875 283.20001220703125,120.9926528930664 283.20001220703125,116.29605865478516 L283.20001220703125,85.9039306640625 L283.1999816894531,85.9039306640625 C283.1999816894531,81.20733642578125 287.00732421875,77.39999389648438 291.70391845703125,77.39998626708984 " stroke="none" fill="none" stroke-width="0.5" stroke-opacity="0" />
  <path d="M446.99993896484375,101.09998321533203 C446.99993896484375,114.18913269042969 430.3449401855469,124.79998779296875 409.79998779296875,124.79998779296875 C389.2549743652344,124.79999542236328 372.5999755859375,114.18914794921875 372.5999450683594,101.10000610351562 L372.5999450683594,101.10000610351562 C372.5999450683594,88.01085662841797 389.25494384765625,77.4000015258789 409.7999267578125,77.39999389648438 C430.34490966796875,77.39997863769531 446.99993896484375,88.01082611083984 446.99993896484375,101.09999084472656 C446.99993896484375,101.09999084472656 446.99993896484375,101.09999084472656 446.99993896484375,101.09999084472656 " stroke="none" fill="#83CC7C" fill-rule="evenodd" stroke-width="0" fill-opacity="1" />
  <text x="2.288188934326172" y="36.89672088623047" dx="0" dy="0" font-family="Arial" font-size="6pt" fill="#000000" style="text-anchor:start" transform="matrix(0.750000 0.000000 0.000000 0.750000 372.5999755859375 77.39999389648438)">schools_2mi_mb</text>
  <path d="M446.99993896484375,101.09998321533203 C446.99993896484375,114.18913269042969 430.3449401855469,124.79998779296875 409.79998779296875,124.79998779296875 C389.2549743652344,124.79999542236328 372.5999755859375,114.18914794921875 372.5999450683594,101.10000610351562 L372.5999450683594,101.10000610351562 C372.5999450683594,88.01085662841797 389.25494384765625,77.4000015258789 409.7999267578125,77.39999389648438 C430.34490966796875,77.39997863769531 446.99993896484375,88.01082611083984 446.99993896484375,101.09999084472656 C446.99993896484375,101.09999084472656 446.99993896484375,101.09999084472656 446.99993896484375,101.09999084472656 " stroke="none" fill="none" stroke-width="0.5" stroke-opacity="0" />
  <path d="M470.5039367675781,77.39999389648438 L527.8960571289062,77.39999389648438 L527.89599609375,77.39999389648438 C532.5925903320312,77.39998626708984 536.3999633789062,81.20732116699219 536.3999633789062,85.90392303466797 C536.3999633789062,85.90392303466797 536.3999633789062,85.9039306640625 536.3999633789062,85.9039306640625 L536.3999633789062,85.9039306640625 L536.3999633789062,116.29605865478516 L536.3999633789062,116.29605102539062 C536.3999633789062,120.99264526367188 532.5926513671875,124.79998779296875 527.8960571289062,124.79998779296875 L527.8960571289062,124.79998779296875 L470.5039367675781,124.79998779296875 L470.5039367675781,124.79998779296875 C465.8073425292969,124.79998779296875 462,120.9926528930664 462,116.29605865478516 L462,85.9039306640625 L461.9999694824219,85.9039306640625 C461.9999694824219,81.20733642578125 465.80731201171875,77.39999389648438 470.50390625,77.39998626708984 " stroke="none" fill="#F2E279" fill-rule="evenodd" stroke-width="0" fill-opacity="1" />
  <text x="4.286189079284668" y="29.996719360351562" dx="0" dy="0" font-family="Arial" font-size="6pt" fill="#000000" style="text-anchor:start" transform="matrix(0.750000 0.000000 0.000000 0.750000 462 77.39999389648438)">Select Layer By </text>
  <text x="24.288856506347656" y="43.79671859741211" dx="0" dy="0" font-family="Arial" font-size="6pt" fill="#000000" style="text-anchor:start" transform="matrix(0.750000 0.000000 0.000000 0.750000 462 77.39999389648438)">Location</text>
  <path d="M470.5039367675781,77.39999389648438 L527.8960571289062,77.39999389648438 L527.89599609375,77.39999389648438 C532.5925903320312,77.39998626708984 536.3999633789062,81.20732116699219 536.3999633789062,85.90392303466797 C536.3999633789062,85.90392303466797 536.3999633789062,85.9039306640625 536.3999633789062,85.9039306640625 L536.3999633789062,85.9039306640625 L536.3999633789062,116.29605865478516 L536.3999633789062,116.29605102539062 C536.3999633789062,120.99264526367188 532.5926513671875,124.79998779296875 527.8960571289062,124.79998779296875 L527.8960571289062,124.79998779296875 L470.5039367675781,124.79998779296875 L470.5039367675781,124.79998779296875 C465.8073425292969,124.79998779296875 462,120.9926528930664 462,116.29605865478516 L462,85.9039306640625 L461.9999694824219,85.9039306640625 C461.9999694824219,81.20733642578125 465.80731201171875,77.39999389648438 470.50390625,77.39998626708984 " stroke="none" fill="none" stroke-width="0.5" stroke-opacity="0" />
  <path d="M625.7999267578125,38.69999313354492 C625.7999267578125,51.78913879394531 609.1448974609375,62.399993896484375 588.5999755859375,62.39999771118164 C568.054931640625,62.400001525878906 551.3999633789062,51.78915786743164 551.39990234375,38.70001220703125 L551.39990234375,38.700016021728516 C551.39990234375,25.610868453979492 568.054931640625,15.000008583068848 588.5999145507812,15 C609.1448974609375,14.99998950958252 625.7999267578125,25.61083221435547 625.7999267578125,38.69999694824219 C625.7999267578125,38.69999694824219 625.7999267578125,38.69999694824219 625.7999267578125,38.69999694824219 " stroke="none" fill="#83CC7C" fill-rule="evenodd" stroke-width="0" fill-opacity="1" />
  <text x="18.298856735229492" y="29.996719360351562" dx="0" dy="0" font-family="Arial" font-size="6pt" fill="#000000" style="text-anchor:start" transform="matrix(0.750000 0.000000 0.000000 0.750000 551.3999633789062 15)">Layer With </text>
  <text x="21.626190185546875" y="43.79671859741211" dx="0" dy="0" font-family="Arial" font-size="6pt" fill="#000000" style="text-anchor:start" transform="matrix(0.750000 0.000000 0.000000 0.750000 551.3999633789062 15)">Selection</text>
  <path d="M625.7999267578125,38.69999313354492 C625.7999267578125,51.78913879394531 609.1448974609375,62.399993896484375 588.5999755859375,62.39999771118164 C568.054931640625,62.400001525878906 551.3999633789062,51.78915786743164 551.39990234375,38.70001220703125 L551.39990234375,38.700016021728516 C551.39990234375,25.610868453979492 568.054931640625,15.000008583068848 588.5999145507812,15 C609.1448974609375,14.99998950958252 625.7999267578125,25.61083221435547 625.7999267578125,38.69999694824219 C625.7999267578125,38.69999694824219 625.7999267578125,38.69999694824219 625.7999267578125,38.69999694824219 " stroke="none" fill="none" stroke-width="0.5" stroke-opacity="0" />
  <path d="M625.7999267578125,101.09998321533203 C625.7999267578125,114.18913269042969 609.1448974609375,124.79998779296875 588.5999755859375,124.79998779296875 C568.054931640625,124.79999542236328 551.3999633789062,114.18914794921875 551.39990234375,101.10000610351562 L551.39990234375,101.10000610351562 C551.39990234375,88.01085662841797 568.054931640625,77.4000015258789 588.5999145507812,77.39999389648438 C609.1448974609375,77.39997863769531 625.7999267578125,88.01082611083984 625.7999267578125,101.09999084472656 C625.7999267578125,101.09999084472656 625.7999267578125,101.09999084472656 625.7999267578125,101.09999084472656 " stroke="none" fill="#83CC7C" fill-rule="evenodd" stroke-width="0" fill-opacity="1" />
  <text x="10.953521728515625" y="29.996719360351562" dx="0" dy="0" font-family="Arial" font-size="6pt" fill="#000000" style="text-anchor:start" transform="matrix(0.750000 0.000000 0.000000 0.750000 551.3999633789062 77.39999389648438)">Output Layer </text>
  <text x="26.96952247619629" y="43.79671859741211" dx="0" dy="0" font-family="Arial" font-size="6pt" fill="#000000" style="text-anchor:start" transform="matrix(0.750000 0.000000 0.000000 0.750000 551.3999633789062 77.39999389648438)">Names</text>
  <path d="M625.7999267578125,101.09998321533203 C625.7999267578125,114.18913269042969 609.1448974609375,124.79998779296875 588.5999755859375,124.79998779296875 C568.054931640625,124.79999542236328 551.3999633789062,114.18914794921875 551.39990234375,101.10000610351562 L551.39990234375,101.10000610351562 C551.39990234375,88.01085662841797 568.054931640625,77.4000015258789 588.5999145507812,77.39999389648438 C609.1448974609375,77.39997863769531 625.7999267578125,88.01082611083984 625.7999267578125,101.09999084472656 C625.7999267578125,101.09999084472656 625.7999267578125,101.09999084472656 625.7999267578125,101.09999084472656 " stroke="none" fill="none" stroke-width="0.5" stroke-opacity="0" />
  <path d="M625.7999267578125,163.49998474121094 C625.7999267578125,176.58914184570312 609.1448974609375,187.1999969482422 588.5999755859375,187.1999969482422 C568.054931640625,187.1999969482422 551.3999633789062,176.5891571044922 551.39990234375,163.50001525878906 L551.39990234375,163.50001525878906 C551.39990234375,150.41085815429688 568.054931640625,139.8000030517578 588.5999145507812,139.8000030517578 C609.1448974609375,139.79998779296875 625.7999267578125,150.41082763671875 625.7999267578125,163.5 C625.7999267578125,163.5 625.7999267578125,163.5 625.7999267578125,163.5 " stroke="none" fill="#82CAED" fill-rule="evenodd" stroke-width="0" fill-opacity="1" />
  <text x="29.966190338134766" y="36.89672088623047" dx="0" dy="0" font-family="Arial" font-size="6pt" fill="#000000" style="text-anchor:start" transform="matrix(0.750000 0.000000 0.000000 0.750000 551.3999633789062 139.8000030517578)">Count</text>
  <path d="M625.7999267578125,163.49998474121094 C625.7999267578125,176.58914184570312 609.1448974609375,187.1999969482422 588.5999755859375,187.1999969482422 C568.054931640625,187.1999969482422 551.3999633789062,176.5891571044922 551.39990234375,163.50001525878906 L551.39990234375,163.50001525878906 C551.39990234375,150.41085815429688 568.054931640625,139.8000030517578 588.5999145507812,139.8000030517578 C609.1448974609375,139.79998779296875 625.7999267578125,150.41082763671875 625.7999267578125,163.5 C625.7999267578125,163.5 625.7999267578125,163.5 625.7999267578125,163.5 " stroke="none" fill="none" stroke-width="0.5" stroke-opacity="0" />
  <path d="M649.3038940429688,15 L706.696044921875,15 L706.6959838867188,15 C711.392578125,14.999992370605469 715.199951171875,18.807327270507812 715.199951171875,23.50393295288086 C715.199951171875,23.503934860229492 715.199951171875,23.503936767578125 715.199951171875,23.503938674926758 L715.199951171875,23.503936767578125 L715.199951171875,53.89606475830078 L715.199951171875,53.89605712890625 C715.199951171875,58.5926513671875 711.3926391601562,62.399993896484375 706.696044921875,62.39999771118164 L706.696044921875,62.39999771118164 L649.3038940429688,62.39999771118164 L649.3038940429688,62.39999771118164 C644.6072998046875,62.39999771118164 640.7999877929688,58.59265899658203 640.7999877929688,53.89606475830078 L640.7999877929688,23.503936767578125 L640.7999267578125,23.50394058227539 C640.7999267578125,18.80734634399414 644.6072998046875,15.00000286102295 649.3038940429688,14.999999046325684 " stroke="none" fill="#F2E279" fill-rule="evenodd" stroke-width="0" fill-opacity="1" />
  <text x="6.626189231872559" y="36.89672088623047" dx="0" dy="0" font-family="Arial" font-size="6pt" fill="#000000" style="text-anchor:start" transform="matrix(0.750000 0.000000 0.000000 0.750000 640.7999877929688 15)">Copy Features</text>
  <path d="M649.3038940429688,15 L706.696044921875,15 L706.6959838867188,15 C711.392578125,14.999992370605469 715.199951171875,18.807327270507812 715.199951171875,23.50393295288086 C715.199951171875,23.503934860229492 715.199951171875,23.503936767578125 715.199951171875,23.503938674926758 L715.199951171875,23.503936767578125 L715.199951171875,53.89606475830078 L715.199951171875,53.89605712890625 C715.199951171875,58.5926513671875 711.3926391601562,62.399993896484375 706.696044921875,62.39999771118164 L706.696044921875,62.39999771118164 L649.3038940429688,62.39999771118164 L649.3038940429688,62.39999771118164 C644.6072998046875,62.39999771118164 640.7999877929688,58.59265899658203 640.7999877929688,53.89606475830078 L640.7999877929688,23.503936767578125 L640.7999267578125,23.50394058227539 C640.7999267578125,18.80734634399414 644.6072998046875,15.00000286102295 649.3038940429688,14.999999046325684 " stroke="none" fill="none" stroke-width="0.5" stroke-opacity="0" />
  <path d="M804.5999145507812,38.69999313354492 C804.5999145507812,51.78913879394531 787.9448852539062,62.399993896484375 767.3999633789062,62.39999771118164 C746.8549194335938,62.400001525878906 730.199951171875,51.78915786743164 730.1998901367188,38.70001220703125 L730.1998901367188,38.700016021728516 C730.1998901367188,25.610868453979492 746.8549194335938,15.000008583068848 767.39990234375,15 C787.9448852539062,14.99998950958252 804.5999145507812,25.61083221435547 804.5999145507812,38.69999694824219 C804.5999145507812,38.69999694824219 804.5999145507812,38.69999694824219 804.5999145507812,38.69999694824219 " stroke="none" fill="#83CC7C" fill-rule="evenodd" stroke-width="0" fill-opacity="1" />
  <text x="2.6121890544891357" y="36.89672088623047" dx="0" dy="0" font-family="Arial" font-size="6pt" fill="#000000" style="text-anchor:start" transform="matrix(0.750000 0.000000 0.000000 0.750000 730.199951171875 15)">blkgrp_prob1_</text>
  <text x="76.6681900024414" y="36.89672088623047" dx="0" dy="0" font-family="Arial" font-size="6pt" fill="#000000" style="text-anchor:start" transform="matrix(0.750000 0.000000 0.000000 0.750000 730.199951171875 15)"> ...</text>
  <path d="M804.5999145507812,38.69999313354492 C804.5999145507812,51.78913879394531 787.9448852539062,62.399993896484375 767.3999633789062,62.39999771118164 C746.8549194335938,62.400001525878906 730.199951171875,51.78915786743164 730.1998901367188,38.70001220703125 L730.1998901367188,38.700016021728516 C730.1998901367188,25.610868453979492 746.8549194335938,15.000008583068848 767.39990234375,15 C787.9448852539062,14.99998950958252 804.5999145507812,25.61083221435547 804.5999145507812,38.69999694824219 C804.5999145507812,38.69999694824219 804.5999145507812,38.69999694824219 804.5999145507812,38.69999694824219 " stroke="none" fill="none" stroke-width="0.5" stroke-opacity="0" />
</svg>